<svg width="707" height="217" viewBox="0 0 707 217" fill="none" xmlns="http://www.w3.org/2000/svg">
<path d="M0 212.402V59.1797H33.3984V212.402H0ZM0 32.666V0H33.3984V32.666H0ZM55.8223 212.402V0H89.0742V120.557L149.865 59.0332H190.881L132.727 115.43L196.301 212.402H155.432L108.996 137.988L89.0742 157.764V212.402H55.8223ZM282.885 160.693V135.938C278.393 138.867 269.359 141.162 255.785 142.822C242.309 144.58 232.152 147.021 225.316 150.146C218.48 153.271 215.062 159.814 215.062 169.775C215.062 176.807 218.236 181.934 224.584 185.156C230.932 188.281 237.865 189.844 245.385 189.844C254.369 189.844 262.865 187.402 270.873 182.52C278.881 177.637 282.885 170.361 282.885 160.693ZM316.576 99.3164V178.711C316.576 185.84 319.945 189.551 326.684 189.844C327.953 189.844 329.955 189.648 332.689 189.258V212.402C326.244 215.039 319.262 216.357 311.742 216.357C296.605 216.357 288.109 210.107 286.254 197.607C280.492 203.467 272.924 208.008 263.549 211.23C254.174 214.648 244.555 216.357 234.691 216.357C225.121 216.357 216.283 214.746 208.178 211.523C200.17 208.203 193.725 203.174 188.842 196.436C183.959 189.697 181.518 181.396 181.518 171.533C181.518 159.717 184.203 150.537 189.574 143.994C194.945 137.451 201.586 132.861 209.496 130.225C217.504 127.588 227.709 125.391 240.111 123.633C249.096 122.363 257.006 121.24 263.842 120.264C270.678 119.287 275.951 117.578 279.662 115.137C283.471 112.695 285.375 108.594 285.375 102.832C285.375 88.8672 274.877 81.8848 253.881 81.8848C233.178 81.8848 221.947 90.0879 220.189 106.494H186.352C187.719 87.9395 194.848 74.7559 207.738 66.9434C220.727 59.1309 236.791 55.2246 255.932 55.2246C272.631 55.2246 286.889 58.7891 298.705 65.918C310.619 73.1445 316.576 84.2773 316.576 99.3164ZM335.191 212.402V59.1797H368.59V212.402H335.191ZM335.191 32.666V0H368.59V32.666H335.191ZM429.686 212.402L374.754 59.0332H411.375L450.779 176.953L487.986 59.0332H522.41L467.771 212.402H429.686ZM610.459 160.693V135.938C605.967 138.867 596.934 141.162 583.359 142.822C569.883 144.58 559.727 147.021 552.891 150.146C546.055 153.271 542.637 159.814 542.637 169.775C542.637 176.807 545.811 181.934 552.158 185.156C558.506 188.281 565.439 189.844 572.959 189.844C581.943 189.844 590.439 187.402 598.447 182.52C606.455 177.637 610.459 170.361 610.459 160.693ZM644.15 99.3164V178.711C644.15 185.84 647.52 189.551 654.258 189.844C655.527 189.844 657.529 189.648 660.264 189.258V212.402C653.818 215.039 646.836 216.357 639.316 216.357C624.18 216.357 615.684 210.107 613.828 197.607C608.066 203.467 600.498 208.008 591.123 211.23C581.748 214.648 572.129 216.357 562.266 216.357C552.695 216.357 543.857 214.746 535.752 211.523C527.744 208.203 521.299 203.174 516.416 196.436C511.533 189.697 509.092 181.396 509.092 171.533C509.092 159.717 511.777 150.537 517.148 143.994C522.52 137.451 529.16 132.861 537.07 130.225C545.078 127.588 555.283 125.391 567.686 123.633C576.67 122.363 584.58 121.24 591.416 120.264C598.252 119.287 603.525 117.578 607.236 115.137C611.045 112.695 612.949 108.594 612.949 102.832C612.949 88.8672 602.451 81.8848 581.455 81.8848C560.752 81.8848 549.521 90.0879 547.764 106.494H513.926C515.293 87.9395 522.422 74.7559 535.312 66.9434C548.301 59.1309 564.365 55.2246 583.506 55.2246C600.205 55.2246 614.463 58.7891 626.279 65.918C638.193 73.1445 644.15 84.2773 644.15 99.3164Z" fill="white"/>
<path d="M665.842 212.402V172.119H706.418V212.402H665.842Z" fill="#204ED5"/>
</svg>
